HIERARCHY
ROOT hip
{
	OFFSET 0.000000 0.000000 0.000000 
	CHANNELS 6 Xposition Yposition Zposition Xrotation Zrotation Yrotation
	JOINT abdomen
	{
		OFFSET 0.000000 3.402643 0.000000 
		CHANNELS 3 Xrotation Zrotation Yrotation
		JOINT chest
		{
			OFFSET 0.000000 8.438565 -0.680529 
			CHANNELS 3 Xrotation Zrotation Yrotation
			JOINT neck
			{
				OFFSET 0.000000 10.207942 -0.272212 
				CHANNELS 3 Xrotation Zrotation Yrotation
				JOINT head
				{
					OFFSET 0.000000 3.130431 0.000000 
					CHANNELS 3 Xrotation Zrotation Yrotation
					End Site
					{
						OFFSET 0.000000 3.130435 0.000000 
					}
				}
			}
			JOINT lCollar
			{
				OFFSET 3.470700 6.669187 -0.816635 
				CHANNELS 3 Yrotation Zrotation Xrotation
				JOINT lShldr
				{
					OFFSET 3.198488 0.000000 0.000000 
					CHANNELS 3 Zrotation Yrotation Xrotation
					JOINT lForeArm
					{
						OFFSET 10.139888 0.000000 0.000000 
						CHANNELS 3 Yrotation Zrotation Xrotation
						JOINT lHand
						{
							OFFSET 8.370511 0.000000 0.000000 
							CHANNELS 3 Zrotation Yrotation Xrotation
							End Site
							{
								OFFSET 4.083176 0.000000 0.000000 
							}
						}
					}
				}
			}
			JOINT rCollar
			{
				OFFSET -3.470700 6.669187 -0.816635 
				CHANNELS 3 Yrotation Zrotation Xrotation
				JOINT rShldr
				{
					OFFSET -3.198488 0.000000 0.000000 
					CHANNELS 3 Zrotation Yrotation Xrotation
					JOINT rForeArm
					{
						OFFSET -10.139888 0.000000 0.000000 
						CHANNELS 3 Yrotation Zrotation Xrotation
						JOINT rHand
						{
							OFFSET -8.370511 0.000000 0.000000 
							CHANNELS 3 Zrotation Yrotation Xrotation
							End Site
							{
								OFFSET -4.083176 0.000000 0.000000 
							}
						}
					}
				}
			}
		}
	}
	JOINT lThigh
	{
		OFFSET 5.308129 -1.633274 1.361059 
		CHANNELS 3 Xrotation Zrotation Yrotation
		JOINT lShin
		{
			OFFSET -2.041588 -20.007561 0.000000 
			CHANNELS 3 Xrotation Zrotation Yrotation
			JOINT lFoot
			{
				OFFSET 0.000000 -19.190928 -1.224953 
				CHANNELS 3 Xrotation Yrotation Zrotation
				End Site
				{
					OFFSET 0.000000 -2.449906 4.627600 
				}
			}
		}
	}
	JOINT rThigh
	{
		OFFSET -5.308129 -1.633274 1.361059 
		CHANNELS 3 Xrotation Zrotation Yrotation
		JOINT rShin
		{
			OFFSET 2.041588 -20.007561 0.000000 
			CHANNELS 3 Xrotation Zrotation Yrotation
			JOINT rFoot
			{
				OFFSET 0.000000 -19.190928 -1.224953 
				CHANNELS 3 Xrotation Yrotation Zrotation
				End Site
				{
					OFFSET 0.000000 -2.449906 4.627600 
				}
			}
		}
	}
}
MOTION
Frames: 13
Frame Time: 0.016667
-0.460892 43.446281 2.164139 1.611380 -0.458803 -31.487600 -21.494200 -2.750220 -11.025700 18.376200 2.869020 -5.694990 48.718800 -0.043135 5.597260 -8.603520 0.000000 0.000000 2.000000 -2.000000 0.000000 -57.234299 -55.321800 121.424004 52.969200 -0.297186 0.109197 1.791620 5.124290 137.164001 -2.000000 2.000000 0.000000 7.183950 34.988201 -166.701996 -139.257996 0.118660 0.073107 -4.085870 5.692590 120.112000 7.827050 -2.449095 19.277157 4.204613 4.660182 0.151864 -19.258734 13.974704 6.077435 6.473701 -4.739187 16.423790 -18.268049 -5.102250 1.400284 6.645765 -6.606811 1.969969 
-0.465608 43.448616 2.169868 1.630910 -0.458798 -31.478001 -21.469900 -2.784320 -10.948800 18.415400 2.791020 -5.670590 48.712200 -0.038878 5.479030 -8.603520 0.000000 0.000000 2.000000 -2.000000 0.000000 -57.166698 -55.409500 121.551003 52.939899 -0.297242 0.109155 1.778810 5.125730 137.095001 -2.000000 2.000000 0.000000 7.349610 34.822102 -166.662994 -139.278000 0.118632 0.073074 -4.077060 5.690960 120.102997 7.963007 -2.391272 19.264446 3.926610 4.475875 0.148489 -19.129400 13.931852 6.174829 6.551171 -4.711372 16.449522 -18.433571 -5.201656 1.409742 6.736032 -6.616712 2.001840 
-0.470324 43.450954 2.175608 1.660210 -0.449030 -31.468201 -21.445400 -2.809340 -10.875100 18.464500 2.703280 -5.635720 48.695801 -0.034078 5.360740 -8.603520 0.000000 0.000000 2.000000 -2.000000 0.000000 -57.098999 -55.487499 121.679001 52.900902 -0.297316 0.109099 1.775760 5.127140 137.026001 -2.000000 2.000000 0.000000 7.525020 34.646198 -166.615005 -139.296997 0.118604 0.073041 -4.078020 5.689330 120.093002 7.832705 -2.406534 19.272709 4.089709 4.605126 0.140621 -19.161993 13.964732 6.123032 6.510699 -4.702672 16.468491 -18.385244 -5.191478 1.397650 6.697693 -6.648741 1.999962 
-0.472213 43.454460 2.185112 1.699270 -0.439260 -31.468201 -21.445400 -2.809340 -10.875100 18.493799 2.703330 -5.634340 48.571800 0.103286 5.475600 -8.603520 0.000000 0.000000 2.000000 -2.000000 0.000000 -57.049999 -55.487598 121.629997 52.949699 -0.297223 0.109169 1.768170 5.133440 137.016006 -2.000000 2.000000 0.000000 7.642260 34.694901 -166.556000 -139.326004 0.118561 0.072992 -4.073560 5.694190 120.151001 7.856131 -2.385017 19.283855 4.006855 4.535423 0.149419 -19.139925 13.910952 6.141663 6.401500 -4.702675 16.473862 -18.262772 -5.122812 1.414249 6.621065 -6.655169 1.973441 
-0.474100 43.458099 2.194628 1.748100 -0.429488 -31.468300 -21.445801 -2.796880 -10.869500 18.523100 2.703380 -5.623190 48.447701 0.238336 5.594070 -8.603520 0.000000 0.000000 2.000000 -2.000000 0.000000 -57.001099 -55.497398 121.581001 52.998501 -0.297130 0.109239 1.768170 5.133440 137.016006 -2.000000 2.000000 0.000000 7.749740 34.743599 -166.496994 -139.356003 0.118519 0.072943 -4.069100 5.699020 120.210999 7.778298 -2.385269 19.309872 4.094499 4.588288 0.150514 -19.167873 13.887383 6.098986 6.516417 -4.666135 16.491980 -18.546152 -5.272678 1.424048 6.758920 -6.651880 2.043805 
-0.476147 43.458740 2.202413 1.757860 -0.429485 -31.458599 -21.470301 -2.771860 -10.943200 18.513201 2.791200 -5.656070 48.392200 0.119130 5.644110 -8.603520 0.000000 0.000000 2.000000 -2.000000 0.000000 -56.990601 -55.390099 121.473000 53.096199 -0.296944 0.109379 1.765550 5.130990 136.985992 -2.000000 2.000000 0.000000 7.740270 34.919201 -166.427994 -139.356003 0.118519 0.072943 -4.075480 5.690930 120.132004 7.778475 -2.384707 19.309908 4.071974 4.581668 0.140029 -19.141832 13.904806 6.106785 6.383566 -4.694506 16.474258 -18.311628 -5.128673 1.405833 6.649906 -6.648192 1.966907 
-0.478193 43.459270 2.210186 1.767630 -0.419722 -31.448601 -21.485500 -2.734330 -11.010800 18.493500 2.879000 -5.679710 48.337601 0.004585 5.675500 -8.603520 0.000000 0.000000 2.000000 -2.000000 0.000000 -56.980099 -55.292599 121.365997 53.193802 -0.296758 0.109519 1.766850 5.136460 136.966003 -2.000000 2.000000 0.000000 7.730810 35.094799 -166.369003 -139.356003 0.118519 0.072943 -4.089380 5.689350 120.063004 7.912475 -2.343719 19.314724 3.828126 4.393250 0.147170 -19.037594 13.849638 6.190867 6.266099 -4.712614 16.457846 -18.089716 -5.012361 1.393016 6.534221 -6.654042 1.898769 
-0.479400 43.461998 2.215612 1.787160 -0.419718 -31.438900 -21.515301 -2.722110 -11.005800 18.444599 2.898420 -5.682880 48.423199 -0.146645 5.524130 -8.603520 0.000000 0.000000 2.000000 -2.000000 0.000000 -57.019600 -55.233799 121.531998 53.350101 -0.296459 0.109742 1.754000 5.137830 136.897003 -2.000000 2.000000 0.000000 7.906680 35.172699 -166.272003 -139.248001 0.118674 0.073123 -4.096390 5.682820 119.964996 7.957498 -2.297266 19.308029 3.723337 4.302577 0.135835 -18.975838 13.845710 6.235356 6.412897 -4.681840 16.457027 -18.389812 -5.139851 1.408422 6.683721 -6.674669 1.981348 
-0.480609 43.464714 2.221027 1.796930 -0.429476 -31.419800 -21.534800 -2.722280 -11.006200 18.395599 2.927610 -5.676690 48.520100 -0.283985 5.357230 -8.603520 0.000000 0.000000 2.000000 -2.000000 0.000000 -57.068802 -55.174999 121.697998 53.506401 -0.296159 0.109964 1.758520 5.132890 136.839005 -2.000000 2.000000 0.000000 8.072770 35.240898 -166.173996 -139.141006 0.118830 0.073303 -4.102450 5.677850 119.875000 7.960130 -2.279642 19.319944 3.720739 4.305320 0.145855 -18.991114 13.841995 6.234232 6.470792 -4.673183 16.470030 -18.519085 -5.187227 1.417816 6.742164 -6.673962 2.005009 
-0.480277 43.465107 2.226767 1.826220 -0.419709 -31.419701 -21.528799 -2.732620 -10.949600 18.415199 2.888610 -5.654700 48.650799 -0.210791 5.340530 -8.603520 0.000000 0.000000 2.000000 -2.000000 0.000000 -57.089401 -55.243000 121.921997 53.564899 -0.296047 0.110047 1.761140 5.135360 136.867996 -2.000000 2.000000 0.000000 8.346160 35.250401 -166.076004 -138.975006 0.119071 0.073581 -4.118280 5.672820 119.787003 7.722192 -2.366578 19.327061 4.093204 4.589954 0.160427 -19.156086 13.875157 6.079235 6.422281 -4.683660 16.467003 -18.473013 -5.133637 1.417233 6.728876 -6.713308 1.982164 
-0.479948 43.465366 2.232519 1.845750 -0.400183 -31.419201 -21.513100 -2.742880 -10.892700 18.444700 2.839870 -5.631900 48.781200 -0.139576 5.323580 -8.603520 0.000000 0.000000 2.000000 -2.000000 0.000000 -57.100201 -55.311100 122.165001 53.613800 -0.295953 0.110116 1.754000 5.137830 136.897003 -2.000000 2.000000 0.000000 8.609780 35.259998 -165.977997 -138.809006 0.119313 0.073858 -4.116800 5.661210 119.690002 7.702414 -2.368159 19.328375 4.092094 4.591450 0.170324 -19.129070 13.847193 6.057950 6.404329 -4.697697 16.465004 -18.488483 -5.113865 1.414099 6.739743 -6.725990 1.968373 
-0.480018 43.456795 2.251066 1.796900 -0.292825 -31.434999 -21.611500 -2.789050 -10.876200 18.288200 2.839570 -5.629870 49.113400 -0.056608 5.475030 -8.603520 0.000000 0.000000 2.000000 -2.000000 0.000000 -57.678699 -54.704102 123.394997 54.707500 -0.293838 0.111644 1.648510 5.167070 135.595001 -2.000000 2.000000 0.000000 8.775560 35.268902 -165.617004 -138.632996 0.119570 0.074151 -4.130740 5.659370 119.621002 7.915224 -2.417677 19.353264 3.716898 4.295727 0.145273 -19.042707 13.738194 6.202513 6.598514 -4.847222 16.357378 -18.894930 -5.188016 1.440063 6.944693 -6.675016 2.015250 
-0.480087 43.448238 2.269602 1.757820 -0.185460 -31.451000 -21.710699 -2.840860 -10.847300 18.141500 2.849030 -5.637540 49.445301 0.028216 5.643520 -8.603520 0.000000 0.000000 2.000000 -2.000000 0.000000 -58.227699 -54.097000 124.595001 55.801300 -0.291693 0.113131 1.525240 5.201100 134.292999 -2.000000 2.000000 0.000000 8.951080 35.277802 -165.246002 -138.457001 0.119828 0.074443 -4.136160 5.652630 119.552002 7.925699 -2.552051 19.362976 3.710059 4.288723 0.144956 -19.094635 13.691580 6.217966 6.598121 -5.010919 16.240734 -18.946285 -5.111005 1.446379 6.976801 -6.656360 1.991709 
